<svg width="248" height="48" viewBox="0 0 248 48" fill="none" xmlns="http://www.w3.org/2000/svg">
<g clip-path="url(#clip0_7248_226)">
<g clip-path="url(#clip1_7248_226)">
<path d="M46.2266 16.3588L46.2016 16.2268L46.1478 16.1032C46.0749 15.9333 45.9649 15.642 45.8253 15.2937C45.4431 14.35 44.8339 12.9626 43.705 11.7004C43.7066 11.6359 43.7089 11.5729 43.7089 11.5054C43.7096 8.33222 42.42 5.448 40.3401 3.36956C38.2615 1.28953 35.3768 -0.000749673 32.2035 3.26786e-07C29.0304 -0.000749673 26.1463 1.28953 24.0677 3.36956C21.9884 5.44809 20.6973 8.33222 20.698 11.5054C20.6973 12.5552 20.8217 13.4655 20.9932 14.3083C21.1653 15.1519 21.3777 15.9263 21.5704 16.7623C21.6402 17.0679 21.7274 17.3327 21.8131 17.5619C19.5389 17.3404 17.4748 17.2312 15.6177 17.2312C13.6083 17.2312 11.8401 17.3571 10.2986 17.609C9.14251 17.7979 8.11313 18.0573 7.20432 18.3948C5.8457 18.9016 4.73898 19.5873 3.94848 20.5135C3.55548 20.9755 3.24826 21.4966 3.04576 22.0565C2.84251 22.6163 2.74388 23.211 2.74463 23.8148C2.74538 24.8526 3.02382 25.91 3.51535 26.9879C4.00773 28.0666 4.71685 29.1734 5.63101 30.3257C6.27048 31.1305 6.73557 31.7253 7.13082 32.3101C7.52748 32.8965 7.86657 33.4822 8.27016 34.3219C9.53241 36.9496 11.3022 39.2406 13.5757 40.8859C14.9632 41.8926 16.5425 42.6473 18.2789 43.0812L15.9319 48H23.0353V45.8426H19.3524L20.4941 43.45C20.9152 43.4857 21.3422 43.5062 21.7769 43.5054C24.0928 43.5062 26.2912 42.9919 28.2658 42.077L31.2425 46.7544L37.057 44.7032L36.3394 42.6686L32.1422 44.1494L30.1585 41.0339C31.0809 40.4377 31.9381 39.7489 32.7089 38.9774C35.5059 36.1835 37.2384 32.3102 37.2384 28.0454H37.2377C37.2429 27.937 37.2468 27.8286 37.2468 27.7178C37.2445 26.9463 37.1467 26.0716 37.054 25.1886C36.9615 24.3102 36.8742 23.4302 36.8751 22.7672C36.8736 22.4198 36.9031 22.1406 36.9365 21.9881C38.575 21.247 40.0012 20.1364 41.1192 18.7634C42.2215 18.7285 43.1818 18.6466 43.9579 18.5039C44.1878 18.4607 44.4032 18.413 44.608 18.3546C44.9168 18.2635 45.1974 18.1657 45.5047 17.9654C45.6579 17.8614 45.8232 17.7279 45.9773 17.5118C46.053 17.404 46.1244 17.2736 46.1745 17.1249C46.2261 16.9762 46.2556 16.8093 46.2549 16.6448C46.2548 16.5446 46.2442 16.4483 46.2266 16.3588ZM42.4444 16.1669C41.8769 16.2185 41.2094 16.2511 40.4751 16.2609L39.8454 16.27L39.4752 16.7797C38.5171 18.099 37.2147 19.1481 35.7021 19.789C35.3455 19.9377 35.0626 20.201 34.8851 20.4604C34.7478 20.6576 34.6575 20.8556 34.5893 21.0475C34.4884 21.3365 34.436 21.6164 34.4027 21.9001C34.3708 22.1839 34.3586 22.4721 34.3586 22.7672C34.3601 23.6282 34.458 24.5643 34.5514 25.4511C34.6447 26.3325 34.7312 27.1723 34.7297 27.7178C34.7297 27.8125 34.7274 27.8975 34.7229 27.9688L34.7214 28.0075V28.0454C34.7206 31.6229 33.2739 34.8515 30.9292 37.1978C28.5829 39.5418 25.3551 40.9884 21.7769 40.9884C19.143 40.9854 16.928 40.1994 15.0505 38.8462C13.1784 37.493 11.6521 35.5493 10.5384 33.2319C10.4747 33.0984 10.4109 32.9771 10.3488 32.8519C11.5269 33.2479 12.6018 33.5186 13.5554 33.6962C15.184 34.0004 16.4698 34.0444 17.3256 34.0444C17.6669 34.0444 17.9408 34.0384 18.1221 34.0384C18.6182 34.0384 19.0209 33.6355 19.0209 33.1387C19.0209 32.6418 18.6181 32.2398 18.1221 32.2398C17.9028 32.2398 17.6441 32.2466 17.3256 32.2466C16.5337 32.2466 15.3798 32.2072 13.8846 31.9288C12.4827 31.6671 10.779 31.1891 8.81495 30.3327C8.45691 29.8426 8.06551 29.3458 7.60201 28.7609C6.78348 27.73 6.18573 26.7802 5.80491 25.9444C5.4226 25.1068 5.26032 24.3907 5.26182 23.815C5.26641 23.2149 5.4151 22.7583 5.73441 22.3107C5.97798 21.9777 6.33601 21.647 6.85107 21.3352C7.61879 20.8687 8.7377 20.4597 10.2032 20.1813C11.6689 19.9006 13.4765 19.7474 15.6179 19.7474C17.5395 19.7474 19.728 19.8703 22.185 20.1283L22.3755 20.148L22.5636 20.1108C22.7979 20.0638 23.0096 20.0123 23.2114 19.9462C23.3647 19.8961 23.5141 19.8376 23.6665 19.7572C23.7811 19.6982 23.8979 19.6245 24.0147 19.529C24.1892 19.3886 24.3637 19.1861 24.476 18.9448C24.5913 18.7044 24.6352 18.4449 24.6329 18.2332C24.6299 17.9214 24.5624 17.703 24.5039 17.5224C24.4114 17.2554 24.3166 17.0552 24.2338 16.8466C24.1504 16.6395 24.0769 16.4317 24.0222 16.1964C23.8151 15.2998 23.608 14.5413 23.4601 13.8077C23.3114 13.0734 23.2159 12.3626 23.2151 11.5055C23.2159 9.01884 24.2196 6.78094 25.8474 5.14997C27.4784 3.52134 29.7177 2.51775 32.2036 2.517C34.6895 2.51775 36.9295 3.52134 38.5598 5.14997C40.1885 6.78094 41.1921 9.01875 41.1928 11.5055C41.1928 11.6898 41.183 11.8854 41.1693 12.0964L41.1337 12.6722L41.5464 13.0758C42.2003 13.7138 42.6789 14.4784 43.0362 15.202C43.1804 15.4964 43.301 15.7762 43.4109 16.0433C43.1416 16.0902 42.8169 16.1335 42.4444 16.1669Z" fill="#ECEDEE"/>
<path d="M34.421 10.3668C33.6267 10.3668 32.9834 11.0108 32.9834 11.8057C32.9834 12.5992 33.6267 13.244 34.421 13.244C35.2152 13.244 35.8593 12.5992 35.8593 11.8057C35.8593 11.0108 35.2152 10.3668 34.421 10.3668Z" fill="#ECEDEE"/>
</g>
<path d="M67.644 31.668C67.292 31.668 67.02 31.572 66.828 31.38C66.636 31.172 66.54 30.884 66.54 30.516V15.708C66.54 15.34 66.636 15.06 66.828 14.868C67.036 14.676 67.316 14.58 67.668 14.58H73.38C75.204 14.58 76.604 15.028 77.58 15.924C78.572 16.82 79.068 18.076 79.068 19.692C79.068 21.324 78.572 22.588 77.58 23.484C76.604 24.38 75.204 24.828 73.38 24.828H68.772V30.516C68.772 30.884 68.676 31.172 68.484 31.38C68.308 31.572 68.028 31.668 67.644 31.668ZM68.772 23.028H73.092C74.34 23.028 75.276 22.748 75.9 22.188C76.54 21.612 76.86 20.78 76.86 19.692C76.86 18.604 76.54 17.788 75.9 17.244C75.276 16.684 74.34 16.404 73.092 16.404H68.772V23.028ZM88.9253 31.668C88.5733 31.668 88.3013 31.572 88.1093 31.38C87.9173 31.172 87.8213 30.884 87.8213 30.516V15.564C87.8213 15.18 87.9173 14.892 88.1093 14.7C88.3013 14.508 88.5733 14.412 88.9253 14.412C89.2933 14.412 89.5733 14.508 89.7653 14.7C89.9573 14.892 90.0533 15.18 90.0533 15.564V30.516C90.0533 30.884 89.9573 31.172 89.7653 31.38C89.5893 31.572 89.3093 31.668 88.9253 31.668ZM106.847 31.716C105.727 31.716 104.735 31.572 103.871 31.284C103.023 30.98 102.311 30.54 101.735 29.964C101.159 29.372 100.719 28.644 100.415 27.78C100.127 26.9 99.9825 25.884 99.9825 24.732V15.54C99.9825 15.156 100.079 14.876 100.271 14.7C100.463 14.508 100.735 14.412 101.087 14.412C101.455 14.412 101.735 14.508 101.927 14.7C102.119 14.876 102.215 15.156 102.215 15.54V24.66C102.215 26.372 102.607 27.652 103.391 28.5C104.175 29.332 105.327 29.748 106.847 29.748C108.367 29.748 109.519 29.332 110.303 28.5C111.087 27.652 111.479 26.372 111.479 24.66V15.54C111.479 15.156 111.575 14.876 111.767 14.7C111.959 14.508 112.231 14.412 112.583 14.412C112.935 14.412 113.207 14.508 113.399 14.7C113.591 14.876 113.687 15.156 113.687 15.54V24.732C113.687 26.252 113.423 27.532 112.895 28.572C112.383 29.612 111.615 30.396 110.591 30.924C109.583 31.452 108.335 31.716 106.847 31.716ZM124.761 31.668C124.409 31.668 124.137 31.572 123.945 31.38C123.753 31.172 123.657 30.884 123.657 30.516V15.708C123.657 15.34 123.753 15.06 123.945 14.868C124.153 14.676 124.433 14.58 124.785 14.58H130.497C132.321 14.58 133.721 15.028 134.697 15.924C135.689 16.82 136.185 18.076 136.185 19.692C136.185 21.324 135.689 22.588 134.697 23.484C133.721 24.38 132.321 24.828 130.497 24.828H125.889V30.516C125.889 30.884 125.793 31.172 125.601 31.38C125.425 31.572 125.145 31.668 124.761 31.668ZM125.889 23.028H130.209C131.457 23.028 132.393 22.748 133.017 22.188C133.657 21.612 133.977 20.78 133.977 19.692C133.977 18.604 133.657 17.788 133.017 17.244C132.393 16.684 131.457 16.404 130.209 16.404H125.889V23.028ZM146.042 31.668C145.69 31.668 145.418 31.572 145.226 31.38C145.034 31.172 144.938 30.884 144.938 30.516V15.564C144.938 15.18 145.034 14.892 145.226 14.7C145.418 14.508 145.69 14.412 146.042 14.412C146.41 14.412 146.69 14.508 146.882 14.7C147.074 14.892 147.17 15.18 147.17 15.564V30.516C147.17 30.884 147.074 31.172 146.882 31.38C146.706 31.572 146.426 31.668 146.042 31.668ZM163.964 31.716C162.844 31.716 161.852 31.572 160.988 31.284C160.14 30.98 159.428 30.54 158.852 29.964C158.276 29.372 157.836 28.644 157.532 27.78C157.244 26.9 157.1 25.884 157.1 24.732V15.54C157.1 15.156 157.196 14.876 157.388 14.7C157.58 14.508 157.852 14.412 158.204 14.412C158.572 14.412 158.852 14.508 159.044 14.7C159.236 14.876 159.332 15.156 159.332 15.54V24.66C159.332 26.372 159.724 27.652 160.508 28.5C161.292 29.332 162.444 29.748 163.964 29.748C165.484 29.748 166.636 29.332 167.42 28.5C168.204 27.652 168.596 26.372 168.596 24.66V15.54C168.596 15.156 168.692 14.876 168.884 14.7C169.076 14.508 169.348 14.412 169.7 14.412C170.052 14.412 170.324 14.508 170.516 14.7C170.708 14.876 170.804 15.156 170.804 15.54V24.732C170.804 26.252 170.54 27.532 170.012 28.572C169.5 29.612 168.732 30.396 167.708 30.924C166.7 31.452 165.452 31.716 163.964 31.716ZM186.318 31.668C185.998 31.668 185.742 31.588 185.55 31.428C185.358 31.268 185.198 31.012 185.07 30.66L179.838 15.732C179.694 15.364 179.71 15.052 179.886 14.796C180.078 14.54 180.39 14.412 180.822 14.412C181.126 14.412 181.366 14.484 181.542 14.628C181.718 14.772 181.862 15.012 181.974 15.348L186.798 29.508H185.934L190.878 15.396C191.006 15.06 191.158 14.812 191.334 14.652C191.51 14.492 191.742 14.412 192.03 14.412C192.334 14.412 192.566 14.492 192.726 14.652C192.902 14.812 193.046 15.068 193.158 15.42L198.006 29.508H197.238L202.11 15.348C202.222 15.028 202.366 14.796 202.542 14.652C202.718 14.492 202.966 14.412 203.286 14.412C203.654 14.412 203.926 14.54 204.102 14.796C204.278 15.052 204.302 15.364 204.174 15.732L198.894 30.684C198.782 31.02 198.63 31.268 198.438 31.428C198.246 31.588 197.99 31.668 197.67 31.668C197.334 31.668 197.07 31.588 196.878 31.428C196.686 31.268 196.526 31.012 196.398 30.66L191.718 17.22H192.246L187.542 30.684C187.414 31.02 187.254 31.268 187.062 31.428C186.886 31.588 186.638 31.668 186.318 31.668ZM214.459 31.5C214.075 31.5 213.779 31.396 213.571 31.188C213.363 30.98 213.259 30.684 213.259 30.3V15.78C213.259 15.396 213.363 15.1 213.571 14.892C213.779 14.684 214.075 14.58 214.459 14.58H223.291C223.595 14.58 223.827 14.66 223.987 14.82C224.163 14.964 224.251 15.18 224.251 15.468C224.251 15.772 224.163 16.004 223.987 16.164C223.827 16.324 223.595 16.404 223.291 16.404H215.419V21.996H222.787C223.091 21.996 223.323 22.076 223.483 22.236C223.643 22.396 223.723 22.62 223.723 22.908C223.723 23.212 223.643 23.444 223.483 23.604C223.323 23.748 223.091 23.82 222.787 23.82H215.419V29.676H223.291C223.595 29.676 223.827 29.756 223.987 29.916C224.163 30.06 224.251 30.284 224.251 30.588C224.251 30.892 224.163 31.124 223.987 31.284C223.827 31.428 223.595 31.5 223.291 31.5H214.459ZM234.425 31.668C234.073 31.668 233.801 31.572 233.609 31.38C233.417 31.172 233.321 30.884 233.321 30.516V15.708C233.321 15.34 233.417 15.06 233.609 14.868C233.817 14.676 234.097 14.58 234.449 14.58H240.161C241.985 14.58 243.385 15.012 244.361 15.876C245.353 16.724 245.849 17.932 245.849 19.5C245.849 20.524 245.625 21.404 245.177 22.14C244.729 22.86 244.081 23.412 243.233 23.796C242.385 24.18 241.361 24.372 240.161 24.372L240.401 24.036H240.929C241.569 24.036 242.121 24.196 242.585 24.516C243.065 24.836 243.489 25.348 243.857 26.052L246.065 30.108C246.209 30.364 246.273 30.612 246.257 30.852C246.241 31.092 246.153 31.292 245.993 31.452C245.833 31.596 245.601 31.668 245.297 31.668C244.977 31.668 244.721 31.604 244.529 31.476C244.337 31.332 244.169 31.124 244.025 30.852L241.433 26.1C241.081 25.428 240.681 24.988 240.233 24.78C239.785 24.556 239.185 24.444 238.433 24.444H235.553V30.516C235.553 30.884 235.457 31.172 235.265 31.38C235.089 31.572 234.809 31.668 234.425 31.668ZM235.553 22.716H239.801C241.081 22.716 242.041 22.452 242.681 21.924C243.321 21.38 243.641 20.588 243.641 19.548C243.641 18.508 243.321 17.724 242.681 17.196C242.041 16.668 241.081 16.404 239.801 16.404H235.553V22.716Z" fill="#ECEDEE"/>
</g>
<defs>
<clipPath id="clip0_7248_226">
<rect width="247" height="48" fill="white" transform="translate(0.5)"/>
</clipPath>
<clipPath id="clip1_7248_226">
<rect width="48" height="48" fill="white" transform="translate(0.5)"/>
</clipPath>
</defs>
</svg>
