<svg width="148" height="24" viewBox="0 0 148 24" fill="none" xmlns="http://www.w3.org/2000/svg">
<path d="M3 17L8.22999 10.8983C8.63274 10.4285 9.36128 10.4335 9.75746 10.9089L13.299 15.1588C13.6754 15.6105 14.3585 15.6415 14.7743 15.2257L16.21 13.79C16.6314 13.3686 17.3256 13.407 17.698 13.8724L21 18" stroke="#ECEDEE" stroke-width="2" stroke-linecap="round" stroke-linejoin="round"/>
<path d="M20 3H4C3.44772 3 3 3.44772 3 4V20C3 20.5523 3.44772 21 4 21H20C20.5523 21 21 20.5523 21 20V4C21 3.44772 20.5523 3 20 3Z" stroke="#ECEDEE" stroke-width="2" stroke-linecap="round" stroke-linejoin="round"/>
<path d="M14 8C14 7.44772 14.4477 7 15 7C15.5523 7 16 7.44772 16 8C16 8.55228 15.5523 9 15 9C14.4477 9 14 8.55228 14 8Z" stroke="#ECEDEE" stroke-width="2" stroke-linecap="round" stroke-linejoin="round"/>
<path d="M47 8V16H37V8H47ZM48 6H36C35.45 6 35 6.45 35 7V17C35 17.55 35.45 18 36 18H48C48.55 18 49 17.55 49 17V13.5L53 17.5V6.5L49 10.5V7C49 6.45 48.55 6 48 6Z" fill="#ECEDEE"/>
<g clip-path="url(#clip0_2905_975)">
<path fill-rule="evenodd" clip-rule="evenodd" d="M74 2C79.5229 2 84 6.47715 84 12C84 17.5229 79.5229 22 74 22C68.4771 22 64 17.5229 64 12C64 6.47715 68.4771 2 74 2ZM74 4.5C69.8579 4.5 66.5 7.85786 66.5 12C66.5 16.1421 69.8579 19.5 74 19.5C78.1421 19.5 81.5 16.1421 81.5 12C81.5 7.85786 78.1421 4.5 74 4.5ZM77.75 13.25C77.75 15.3211 76.0711 17 74 17C72.0029 17 70.3704 15.4389 70.2564 13.4703L70.25 13.25H77.75ZM71.5 8.25C72.1903 8.25 72.75 8.80965 72.75 9.5C72.75 10.1903 72.1903 10.75 71.5 10.75C70.8096 10.75 70.25 10.1903 70.25 9.5C70.25 8.80965 70.8096 8.25 71.5 8.25ZM76.5 8.25C77.1904 8.25 77.75 8.80965 77.75 9.5C77.75 10.1903 77.1904 10.75 76.5 10.75C75.8096 10.75 75.25 10.1903 75.25 9.5C75.25 8.80965 75.8096 8.25 76.5 8.25Z" fill="#ECEDEE"/>
</g>
<path d="M96.0341 12.5191L103.481 19.9661C103.872 20.3567 104.505 20.3567 104.895 19.9661L111.966 12.8951C112.357 12.5045 112.357 11.8714 111.966 11.4808L104.519 4.03386C104.31 3.82401 104.017 3.71821 103.722 3.74508L97.2399 4.33433C96.7592 4.37804 96.3783 4.75894 96.3346 5.23969L95.7453 11.7215C95.7185 12.0171 95.8243 12.3093 96.0341 12.5191Z" stroke="#ECEDEE" stroke-width="2" stroke-linecap="round" stroke-linejoin="round"/>
<path d="M100.299 8.29875C100.689 7.90823 101.322 7.90823 101.713 8.29875C102.103 8.68928 102.103 9.32244 101.713 9.71297C101.322 10.1035 100.689 10.1035 100.299 9.71297C99.9082 9.32244 99.9082 8.68928 100.299 8.29875Z" stroke="#ECEDEE" stroke-width="2" stroke-linecap="round" stroke-linejoin="round"/>
<path d="M142.75 3.50055C144.545 3.50055 146 4.95562 146 6.75055V17.2531C146 19.0481 144.545 20.5031 142.75 20.5031H129.25C127.455 20.5031 126 19.0481 126 17.2531V6.75055C126 4.95562 127.455 3.50055 129.25 3.50055H142.75ZM142.75 5.00055H129.25C128.284 5.00055 127.5 5.78405 127.5 6.75055V17.2531C127.5 18.2196 128.284 19.0031 129.25 19.0031H142.75C143.716 19.0031 144.5 18.2196 144.5 17.2531V6.75055C144.5 5.78405 143.716 5.00055 142.75 5.00055ZM132.015 8.87194C132.611 8.87194 133.034 8.95327 133.517 9.18533C133.828 9.33476 133.959 9.70814 133.81 10.0193C133.66 10.3305 133.287 10.4616 132.976 10.3121C132.676 10.1682 132.436 10.1219 132.015 10.1219C131.148 10.1219 130.511 10.9183 130.511 11.9943C130.511 13.0713 131.149 13.8703 132.015 13.8703C132.443 13.8703 132.806 13.6904 132.995 13.3695L133.001 13.3545V12.6205L132.625 12.6212C132.311 12.6212 132.052 12.3899 132.007 12.0886L132 11.9962C132 11.6824 132.231 11.4226 132.533 11.378L132.625 11.3712H133.627C133.941 11.3712 134.2 11.6025 134.245 11.9038L134.252 11.9962L134.25 13.5439L134.244 13.5992L134.223 13.6891L134.202 13.7442C133.826 14.6343 132.962 15.1203 132.015 15.1203C130.389 15.1203 129.261 13.7076 129.261 11.9943C129.261 10.2817 130.388 8.87194 132.015 8.87194ZM136.629 8.99394C136.943 8.99394 137.203 9.2252 137.247 9.52658L137.254 9.61894V14.3811C137.254 14.7262 136.974 15.0061 136.629 15.0061C136.315 15.0061 136.055 14.7748 136.011 14.4734L136.004 14.3811V9.61894C136.004 9.27376 136.284 8.99394 136.629 8.99394ZM139.625 8.99394L141.622 9.00084C141.967 9.00203 142.246 9.28282 142.245 9.628C142.244 9.94179 142.012 10.2008 141.71 10.2444L141.618 10.2508L140.247 10.2455V11.9995L141.37 12.0004C141.684 12.0004 141.944 12.2317 141.988 12.533L141.995 12.6254C141.995 12.9392 141.764 13.199 141.462 13.2436L141.37 13.2504L140.247 13.2495L140.248 14.365C140.248 14.6788 140.016 14.9386 139.715 14.9832L139.623 14.99C139.309 14.99 139.049 14.7587 139.004 14.4573L138.998 14.365V9.61678C138.999 9.30299 139.231 9.044 139.532 9.0004L139.625 8.99394Z" fill="#ECEDEE"/>
<defs>
<clipPath id="clip0_2905_975">
<rect width="20" height="20" fill="white" transform="translate(64 2)"/>
</clipPath>
</defs>
</svg>
